<?xml version="1.0" encoding="UTF-8" standalone="no"?>
<svg
   width="1024"
   height="1024"
   version="1.1"
   id="svg308"
   sodipodi:docname="icon-win.svg"
   inkscape:version="1.2 (dc2aeda, 2022-05-15)"
   inkscape:export-filename="icon-win.png"
   inkscape:export-xdpi="96"
   inkscape:export-ydpi="96"
   xmlns:inkscape="http://www.inkscape.org/namespaces/inkscape"
   xmlns:sodipodi="http://sodipodi.sourceforge.net/DTD/sodipodi-0.dtd"
   xmlns:xlink="http://www.w3.org/1999/xlink"
   xmlns="http://www.w3.org/2000/svg"
   xmlns:svg="http://www.w3.org/2000/svg">
  <sodipodi:namedview
     id="namedview310"
     pagecolor="#ffffff"
     bordercolor="#666666"
     borderopacity="1.0"
     inkscape:showpageshadow="2"
     inkscape:pageopacity="0.0"
     inkscape:pagecheckerboard="0"
     inkscape:deskcolor="#d1d1d1"
     showgrid="false"
     inkscape:zoom="0.45707143"
     inkscape:cx="82.044069"
     inkscape:cy="451.78934"
     inkscape:window-width="1600"
     inkscape:window-height="847"
     inkscape:window-x="81"
     inkscape:window-y="25"
     inkscape:window-maximized="1"
     inkscape:current-layer="svg308" />
  <defs
     id="defs302">
    <linearGradient
       inkscape:collect="always"
       id="linearGradient23029">
      <stop
         style="stop-color:#14b8a6;stop-opacity:1;"
         offset="0"
         id="stop23025" />
      <stop
         style="stop-color:#059669;stop-opacity:1;"
         offset="1"
         id="stop23027" />
    </linearGradient>
    <linearGradient
       id="linearGradient21498"
       inkscape:swatch="gradient">
      <stop
         style="stop-color:#10b981;stop-opacity:1;"
         offset="0"
         id="stop21496" />
      <stop
         style="stop-color:#059669;stop-opacity:1;"
         offset="1"
         id="stop21494" />
    </linearGradient>
    <filter
       id="blur_shadow"
       x="-0.034951456"
       y="-0.034951456"
       width="1.0699029"
       height="1.0699029">
      <feGaussianBlur
         stdDeviation="12"
         id="feGaussianBlur299" />
    </filter>
    <filter
       style="color-interpolation-filters:sRGB"
       id="filter45561"
       x="-0.099697615"
       y="-0.13557522"
       width="1.1993952"
       height="1.2711552">
      <feGaussianBlur
         stdDeviation="3.3266447"
         id="feGaussianBlur45563" />
    </filter>
    <linearGradient
       inkscape:collect="always"
       xlink:href="#linearGradient23029"
       id="linearGradient23031"
       x1="924"
       y1="521.41949"
       x2="100"
       y2="554.99799"
       gradientUnits="userSpaceOnUse"
       gradientTransform="matrix(1.2244457,0,0,1.2244457,-114.9162,-114.91617)" />
  </defs>
  <path
     d="m 1016.4716,320.26651 c 0,-11.97753 0,-22.46858 -0.068,-34.44732 -0.06,-10.09067 -0.1763,-20.17887 -0.4506,-30.2634 -0.5926,-21.9837 -1.8893,-44.15474 -5.799,-65.8911 -3.9647,-22.05227 -10.43962,-42.57398 -20.64293,-62.60958 A 210.55935,210.55935 0 0 0 950.74336,73.719478 210.67813,210.67813 0 0 0 897.38937,34.978017 C 877.33172,24.772263 856.78797,18.299843 834.71244,14.336312 812.9724,10.432779 790.79524,9.1385404 768.81277,8.5446836 758.71967,8.2716322 748.62778,8.1565346 738.53223,8.0940876 726.54736,8.0206224 714.56248,8.0267471 702.57761,8.0267471 L 563.42303,7.5283982 H 459.34637 L 322.65293,8.0267471 c -12.00814,0 -24.01628,-0.00611 -36.02441,0.067341 -10.11638,0.062449 -20.22785,0.1775446 -30.33933,0.450596 -22.03389,0.5938568 -44.26125,1.8893209 -66.05271,5.7977509 -22.10492,3.962305 -42.6805,10.432277 -62.76386,20.630685 A 211.10056,211.10056 0 0 0 74.004747,73.719478 210.5973,210.5973 0 0 0 35.16778,127.04531 c -10.231469,20.04662 -16.718582,40.5818 -20.693133,62.64509 -3.913328,21.72901 -5.210016,43.89148 -5.8063216,65.86539 -0.2718265,10.08575 -0.3893729,20.17396 -0.450596,30.2634 -0.073465,11.97997 -0.6893626,26.86066 -0.6893626,38.83941 v 239.99012 l 0.6220179,137.66321 c 0,11.99468 -0.00485,23.98934 0.067341,35.98401 0.061226,10.10412 0.1787695,20.2058 0.4518209,30.30626 0.5950807,22.01063 1.8942174,44.2135 5.8112194,65.98048 3.973325,22.0792 10.459214,42.63275 20.682111,62.69284 a 210.89852,210.89852 0 0 0 38.841867,53.4091 211.14831,211.14831 0 0 0 53.458076,38.79533 c 20.0956,10.21922 40.68099,16.70025 62.79937,20.66865 21.78167,3.9096 44.00168,5.2063 66.027,5.8002 10.11148,0.273 20.22417,0.3894 30.34055,0.4506 12.00814,0.072 24.01505,0.072 36.02319,0.072 h 379.92468 c 11.98487,0 23.96975,0 35.95462,-0.072 10.09555,-0.061 20.18744,-0.1776 30.28054,-0.4506 21.99104,-0.5951 44.17555,-1.893 65.92538,-5.8051 22.06206,-3.9684 42.59602,-10.44698 62.64142,-20.66007 a 210.60955,210.60955 0 0 0 53.36379,-38.79901 210.88627,210.88627 0 0 0 38.76472,-53.40053 c 10.20821,-20.06989 16.68312,-40.63201 20.65032,-62.72713 3.9059,-21.7584 5.2014,-43.9527 5.7953,-65.95476 0.273,-10.10168 0.3893,-20.20336 0.4493,-30.30626 0.069,-11.99467 0.069,-23.98933 0.069,-35.98401 z"
     fill="#fff"
     id="path306"
     style="fill:url(#linearGradient23031);fill-opacity:1;stroke-width:1.22444" />
  <g
     id="g56254"
     style="display:inline"
     transform="matrix(1.550016,0,0,1.550016,-56.757735,-52.403942)">
    <g
       id="g56250"
       style="display:inline">
      <path
         id="path20644-5-0-1-5"
         style="display:inline;mix-blend-mode:normal;fill:#000000;fill-opacity:0.493562;fill-rule:evenodd;stroke:#ffffff;stroke-width:0.149253;stroke-linecap:round;stroke-opacity:1;filter:url(#filter45561)"
         d="m 134.09714,129.71118 c -8.19929,-0.0599 -12.03254,9.71802 -13.67927,15.81144 -2.40691,7.19687 -3.6648,13.99407 -5.18469,21.19095 -2.9805,12.02096 -0.23147,18.57723 5.38468,21.15013 2.80808,1.28646 6.2109,1.56224 9.97252,1.02681 1.88081,-0.26772 4.74609,-1.00147 6.77685,-1.64951 3.5892,-1.25436 1.78897,-0.58254 3.58893,-1.25419 3.28807,-1.22692 2.78356,-1.05224 4.39663,-1.62212 0,0 0.95383,-0.34295 1.44384,-0.51935 0.49002,-0.17639 1.87328,-0.85058 5.29115,-0.96376 0.85427,-0.0283 1.67279,-0.0639 2.34197,-0.0274 0.66919,-0.0366 1.48874,-0.001 2.34301,0.0274 3.41788,0.11318 4.80062,0.78737 5.29063,0.96376 0.49002,0.1764 1.44384,0.51935 1.44384,0.51935 1.61308,0.56988 1.10857,0.3952 4.39664,1.62212 1.79995,0.67165 2.2e-4,-1.7e-4 3.58944,1.25419 2.03075,0.64804 4.89552,1.38179 6.77633,1.64951 3.76162,0.53543 7.16496,0.25965 9.97304,-1.02681 5.61615,-2.5729 8.36519,-9.12917 5.38468,-21.15013 -1.5199,-7.19688 -2.77778,-13.99408 -5.1847,-21.19095 -1.84895,-6.84173 -6.45472,-18.3287 -16.90181,-15.31948 l -4.36769,1.15342 c -4.04966,1.22727 -8.41213,2.53266 -12.74289,2.53266 -4.33075,-1e-5 -8.69324,-1.30539 -12.74289,-2.53266 l -4.36769,-1.15342 c -1.14265,-0.32914 -2.21562,-0.48461 -3.22255,-0.49196 z m 13.82293,15.96337 a 4.1244459,4.1244459 0 0 1 2.06241,0.55242 l 15.05128,8.68991 a 4.1244459,4.1244459 0 0 1 0,7.14375 l -15.05128,8.68939 a 4.1244459,4.1244459 0 0 1 -6.1867,-3.57188 v -17.3793 a 4.1244459,4.1244459 0 0 1 4.12429,-4.12429 z"
         transform="matrix(6.8142574,0,0,6.9777292,-685.39093,-729.37176)" />
      <path
         id="path20644-5-0-1"
         style="display:inline;fill:#ffffff;fill-opacity:1;fill-rule:evenodd;stroke:#ffffff;stroke-width:1.03334;stroke-linecap:round;stroke-opacity:1"
         d="m 226.16205,158.37308 c -56.76706,-0.41471 -83.30622,67.28185 -94.70721,109.4691 -16.66403,49.82689 -25.37292,96.8867 -35.895743,146.71366 -20.635227,83.22605 -1.602562,128.6178 37.280353,146.43104 19.44149,8.90669 43.00061,10.81603 69.04386,7.10903 13.02162,-1.85354 32.85913,-6.93359 46.91891,-11.42024 24.84951,-8.68445 12.38578,-4.03316 24.84764,-8.68327 22.76466,-8.49447 19.27173,-7.28509 30.43968,-11.2306 0,0 6.60376,-2.37439 9.9963,-3.59568 3.39261,-1.22122 12.96949,-5.88891 36.6328,-6.6725 5.91447,-0.19593 11.58142,-0.44241 16.21443,-0.1897 4.63307,-0.2534 10.30715,-0.007 16.22162,0.1897 23.66339,0.78359 33.23666,5.45128 36.6292,6.6725 3.39261,1.22129 9.9963,3.59568 9.9963,3.59568 11.16802,3.94551 7.67509,2.73613 30.43975,11.2306 12.46179,4.65011 0.002,-10e-4 24.85117,8.68327 14.05971,4.48665 33.89369,9.5667 46.91531,11.42024 26.04325,3.707 49.60597,1.79766 69.04746,-7.10903 38.88292,-17.81324 57.91565,-63.20499 37.28035,-146.43104 C 627.79134,364.72888 619.08252,317.66907 602.41842,267.84218 589.61738,220.47407 557.72974,140.94505 485.40024,161.77912 l -30.23931,7.9856 c -28.03746,8.4969 -58.24063,17.53465 -88.22426,17.53465 -29.98357,-7e-5 -60.18688,-9.03775 -88.22427,-17.53465 l -30.23931,-7.9856 c -7.91104,-2.27877 -15.33965,-3.35515 -22.31104,-3.40604 z m 95.70182,110.52097 a 28.555235,28.555235 0 0 1 14.27892,3.82463 l 104.2062,60.16382 a 28.555235,28.555235 0 0 1 0,49.45912 l -104.2062,60.16022 A 28.555235,28.555235 0 0 1 293.30972,417.77225 V 297.44821 a 28.555235,28.555235 0 0 1 28.55415,-28.55416 z" />
    </g>
  </g>
</svg>
