<?xml version="1.0" encoding="UTF-8" standalone="no"?>
<!-- Created with Inkscape (http://www.inkscape.org/) -->

<svg
   width="1024"
   height="1024"
   viewBox="0 0 1024 1024"
   version="1.1"
   id="SVGRoot"
   sodipodi:docname="icon.svg"
   xml:space="preserve"
   inkscape:version="1.2 (dc2aeda, 2022-05-15)"
   inkscape:export-filename="icon.png"
   inkscape:export-xdpi="96"
   inkscape:export-ydpi="96"
   xmlns:inkscape="http://www.inkscape.org/namespaces/inkscape"
   xmlns:sodipodi="http://sodipodi.sourceforge.net/DTD/sodipodi-0.dtd"
   xmlns:xlink="http://www.w3.org/1999/xlink"
   xmlns="http://www.w3.org/2000/svg"
   xmlns:svg="http://www.w3.org/2000/svg"><sodipodi:namedview
     id="namedview17"
     pagecolor="#ffffff"
     bordercolor="#666666"
     borderopacity="1.0"
     inkscape:showpageshadow="2"
     inkscape:pageopacity="0.0"
     inkscape:pagecheckerboard="0"
     inkscape:deskcolor="#d1d1d1"
     showgrid="false"
     inkscape:zoom="0.37661912"
     inkscape:cx="75.673268"
     inkscape:cy="553.6097"
     inkscape:window-width="1440"
     inkscape:window-height="847"
     inkscape:window-x="0"
     inkscape:window-y="925"
     inkscape:window-maximized="1"
     inkscape:current-layer="SVGRoot" /><defs
     id="defs55665"><inkscape:path-effect
       effect="fillet_chamfer"
       id="path-effect573"
       is_visible="true"
       lpeversion="1"
       nodesatellites_param="F,0,0,1,0,220,0,1 @ F,0,0,1,0,220,0,1 @ F,0,0,1,0,220,0,1 @ F,0,0,1,0,220,0,1"
       unit="px"
       method="auto"
       mode="F"
       radius="220"
       chamfer_steps="1"
       flexible="false"
       use_knot_distance="true"
       apply_no_radius="true"
       apply_with_radius="true"
       only_selected="false"
       hide_knots="false" /><linearGradient
       xlink:href="#linearGradient39387"
       id="linearGradient39372"
       gradientUnits="userSpaceOnUse"
       x1="87.138779"
       y1="141.71097"
       x2="238.08467"
       y2="141.71097"
       gradientTransform="matrix(10.208768,0,0,11.734609,-890.3415,-1150.9229)" /><linearGradient
       id="linearGradient39387"><stop
         style="stop-color:#059669;stop-opacity:1;"
         offset="0"
         id="stop39383" /><stop
         style="stop-color:#09b0bb;stop-opacity:1;"
         offset="1"
         id="stop39385" /></linearGradient><filter
       style="color-interpolation-filters:sRGB"
       id="filter45561"
       x="-0.099697615"
       y="-0.13557522"
       width="1.1993952"
       height="1.2711552"><feGaussianBlur
         stdDeviation="3.3266447"
         id="feGaussianBlur45563" /></filter></defs><g
     id="g607"><path
       style="display:inline;fill:url(#linearGradient39372);fill-opacity:1;fill-rule:evenodd;stroke:none;stroke-width:1.64583;stroke-miterlimit:12.3;stroke-opacity:1"
       id="rect22109-4-8"
       width="1024"
       height="1023.9916"
       x="0"
       y="0.0042114258"
       ry="94.853958"
       d="m 220,0 h 584 a 220,220 45 0 1 220,220 V 804 A 220,220 135 0 1 804,1024 H 220 A 220,220 45 0 1 0,804 V 220 A 220,220 135 0 1 220,0 Z"
       rx="0"
       sodipodi:nodetypes="ccccc"
       inkscape:path-effect="#path-effect573"
       inkscape:original-d="M 0,0 H 1024 V 1024 H 0 Z" /><path
       id="path20644-5-0-1-5"
       style="display:inline;mix-blend-mode:normal;fill:#000000;fill-opacity:0.493562;fill-rule:evenodd;stroke:#ffffff;stroke-width:0.149253;stroke-linecap:round;stroke-opacity:1;filter:url(#filter45561)"
       d="m 134.09714,129.71118 c -8.19929,-0.0599 -12.03254,9.71802 -13.67927,15.81144 -2.40691,7.19687 -3.6648,13.99407 -5.18469,21.19095 -2.9805,12.02096 -0.23147,18.57723 5.38468,21.15013 2.80808,1.28646 6.2109,1.56224 9.97252,1.02681 1.88081,-0.26772 4.74609,-1.00147 6.77685,-1.64951 3.5892,-1.25436 1.78897,-0.58254 3.58893,-1.25419 3.28807,-1.22692 2.78356,-1.05224 4.39663,-1.62212 0,0 0.95383,-0.34295 1.44384,-0.51935 0.49002,-0.17639 1.87328,-0.85058 5.29115,-0.96376 0.85427,-0.0283 1.67279,-0.0639 2.34197,-0.0274 0.66919,-0.0366 1.48874,-0.001 2.34301,0.0274 3.41788,0.11318 4.80062,0.78737 5.29063,0.96376 0.49002,0.1764 1.44384,0.51935 1.44384,0.51935 1.61308,0.56988 1.10857,0.3952 4.39664,1.62212 1.79995,0.67165 2.2e-4,-1.7e-4 3.58944,1.25419 2.03075,0.64804 4.89552,1.38179 6.77633,1.64951 3.76162,0.53543 7.16496,0.25965 9.97304,-1.02681 5.61615,-2.5729 8.36519,-9.12917 5.38468,-21.15013 -1.5199,-7.19688 -2.77778,-13.99408 -5.1847,-21.19095 -1.84895,-6.84173 -6.45472,-18.3287 -16.90181,-15.31948 l -4.36769,1.15342 c -4.04966,1.22727 -8.41213,2.53266 -12.74289,2.53266 -4.33075,-1e-5 -8.69324,-1.30539 -12.74289,-2.53266 l -4.36769,-1.15342 c -1.14265,-0.32914 -2.21562,-0.48461 -3.22255,-0.49196 z m 13.82293,15.96337 a 4.1244459,4.1244459 0 0 1 2.06241,0.55242 l 15.05128,8.68991 a 4.1244459,4.1244459 0 0 1 0,7.14375 l -15.05128,8.68939 a 4.1244459,4.1244459 0 0 1 -6.1867,-3.57188 v -17.3793 a 4.1244459,4.1244459 0 0 1 4.12429,-4.12429 z"
       transform="matrix(10.561875,0,0,10.815251,-1119.0732,-1195.0161)" /><g
       id="g56254"
       style="display:inline"
       transform="matrix(1.5499671,0,0,1.5499671,-56.739782,-52.386153)"><g
         id="g56250"
         style="display:inline"><path
           id="path20644-5-0-1"
           style="display:inline;fill:#ffffff;fill-opacity:1;fill-rule:evenodd;stroke:#ffffff;stroke-width:1.03334;stroke-linecap:round;stroke-opacity:1"
           d="m 226.16205,158.37308 c -56.76706,-0.41471 -83.30622,67.28185 -94.70721,109.4691 -16.66403,49.82689 -25.37292,96.8867 -35.895743,146.71366 -20.635227,83.22605 -1.602562,128.6178 37.280353,146.43104 19.44149,8.90669 43.00061,10.81603 69.04386,7.10903 13.02162,-1.85354 32.85913,-6.93359 46.91891,-11.42024 24.84951,-8.68445 12.38578,-4.03316 24.84764,-8.68327 22.76466,-8.49447 19.27173,-7.28509 30.43968,-11.2306 0,0 6.60376,-2.37439 9.9963,-3.59568 3.39261,-1.22122 12.96949,-5.88891 36.6328,-6.6725 5.91447,-0.19593 11.58142,-0.44241 16.21443,-0.1897 4.63307,-0.2534 10.30715,-0.007 16.22162,0.1897 23.66339,0.78359 33.23666,5.45128 36.6292,6.6725 3.39261,1.22129 9.9963,3.59568 9.9963,3.59568 11.16802,3.94551 7.67509,2.73613 30.43975,11.2306 12.46179,4.65011 0.002,-10e-4 24.85117,8.68327 14.05971,4.48665 33.89369,9.5667 46.91531,11.42024 26.04325,3.707 49.60597,1.79766 69.04746,-7.10903 38.88292,-17.81324 57.91565,-63.20499 37.28035,-146.43104 C 627.79134,364.72888 619.08252,317.66907 602.41842,267.84218 589.61738,220.47407 557.72974,140.94505 485.40024,161.77912 l -30.23931,7.9856 c -28.03746,8.4969 -58.24063,17.53465 -88.22426,17.53465 -29.98357,-7e-5 -60.18688,-9.03775 -88.22427,-17.53465 l -30.23931,-7.9856 c -7.91104,-2.27877 -15.33965,-3.35515 -22.31104,-3.40604 z m 95.70182,110.52097 a 28.555235,28.555235 0 0 1 14.27892,3.82463 l 104.2062,60.16382 a 28.555235,28.555235 0 0 1 0,49.45912 l -104.2062,60.16022 A 28.555235,28.555235 0 0 1 293.30972,417.77225 V 297.44821 a 28.555235,28.555235 0 0 1 28.55415,-28.55416 z" /></g></g></g></svg>
