<?xml version="1.0" encoding="UTF-8" standalone="no"?>
<svg
   width="1024"
   height="1024"
   version="1.1"
   id="svg308"
   sodipodi:docname="icon-mac.svg"
   inkscape:version="1.2 (dc2aeda, 2022-05-15)"
   inkscape:export-filename="icon-mac.png"
   inkscape:export-xdpi="96"
   inkscape:export-ydpi="96"
   xmlns:inkscape="http://www.inkscape.org/namespaces/inkscape"
   xmlns:sodipodi="http://sodipodi.sourceforge.net/DTD/sodipodi-0.dtd"
   xmlns:xlink="http://www.w3.org/1999/xlink"
   xmlns="http://www.w3.org/2000/svg"
   xmlns:svg="http://www.w3.org/2000/svg">
  <sodipodi:namedview
     id="namedview310"
     pagecolor="#ffffff"
     bordercolor="#666666"
     borderopacity="1.0"
     inkscape:showpageshadow="2"
     inkscape:pageopacity="0.0"
     inkscape:pagecheckerboard="0"
     inkscape:deskcolor="#d1d1d1"
     showgrid="false"
     inkscape:zoom="0.45707143"
     inkscape:cx="340.2094"
     inkscape:cy="508.67322"
     inkscape:window-width="1440"
     inkscape:window-height="847"
     inkscape:window-x="0"
     inkscape:window-y="925"
     inkscape:window-maximized="1"
     inkscape:current-layer="svg308" />
  <defs
     id="defs302">
    <linearGradient
       inkscape:collect="always"
       id="linearGradient23029">
      <stop
         style="stop-color:#14b8a6;stop-opacity:1;"
         offset="0"
         id="stop23025" />
      <stop
         style="stop-color:#059669;stop-opacity:1;"
         offset="1"
         id="stop23027" />
    </linearGradient>
    <linearGradient
       id="linearGradient21498"
       inkscape:swatch="gradient">
      <stop
         style="stop-color:#10b981;stop-opacity:1;"
         offset="0"
         id="stop21496" />
      <stop
         style="stop-color:#059669;stop-opacity:1;"
         offset="1"
         id="stop21494" />
    </linearGradient>
    <filter
       id="blur_shadow"
       x="-0.034951456"
       y="-0.034951456"
       width="1.0699029"
       height="1.0699029">
      <feGaussianBlur
         stdDeviation="12"
         id="feGaussianBlur299" />
    </filter>
    <filter
       style="color-interpolation-filters:sRGB"
       id="filter45561"
       x="-0.099697615"
       y="-0.13557522"
       width="1.1993952"
       height="1.2711552">
      <feGaussianBlur
         stdDeviation="3.3266447"
         id="feGaussianBlur45563" />
    </filter>
    <linearGradient
       inkscape:collect="always"
       xlink:href="#linearGradient23029"
       id="linearGradient23031"
       x1="924"
       y1="521.41949"
       x2="100"
       y2="554.99799"
       gradientUnits="userSpaceOnUse" />
  </defs>
  <path
     d="M924 355.412c0-9.782 0-18.35-.056-28.133-.049-8.241-.144-16.48-.368-24.716-.484-17.954-1.543-36.061-4.736-53.813-3.238-18.01-8.526-34.77-16.859-51.133a171.963 171.963 0 00-31.661-43.559 172.06 172.06 0 00-43.574-31.64c-16.381-8.335-33.159-13.621-51.188-16.858-17.755-3.188-35.867-4.245-53.82-4.73-8.243-.223-16.485-.317-24.73-.368-9.788-.06-19.576-.055-29.364-.055L553.997 100h-84.999l-111.637.407c-9.807 0-19.614-.005-29.421.055-8.262.051-16.52.145-24.778.368-17.995.485-36.148 1.543-53.945 4.735-18.053 3.236-34.857 8.52-51.259 16.849a172.405 172.405 0 00-43.667 31.644 171.994 171.994 0 00-31.718 43.551c-8.356 16.372-13.654 33.143-16.9 51.162-3.196 17.746-4.255 35.846-4.742 53.792-.222 8.237-.318 16.476-.368 24.716-.06 9.784-.563 21.937-.563 31.72v195.999l.508 112.429c0 9.796-.004 19.592.055 29.388.05 8.252.146 16.502.369 24.751.486 17.976 1.547 36.109 4.746 53.886 3.245 18.032 8.542 34.818 16.891 51.201a172.24 172.24 0 0031.722 43.619 172.444 172.444 0 0043.659 31.684c16.412 8.346 33.224 13.639 51.288 16.88 17.789 3.193 35.936 4.252 53.924 4.737 8.258.223 16.517.318 24.779.368 9.807.059 19.613.059 29.42.059h310.283c9.788 0 19.576 0 29.364-.059 8.245-.05 16.487-.145 24.73-.368 17.96-.486 36.078-1.546 53.841-4.741 18.018-3.241 34.788-8.532 51.159-16.873a172.004 172.004 0 0043.582-31.687 172.23 172.23 0 0031.659-43.612c8.337-16.391 13.625-33.184 16.865-51.229 3.19-17.77 4.248-35.896 4.733-53.865.223-8.25.318-16.5.367-24.751.056-9.796.056-19.592.056-29.388V355.412z"
     fill="rgba(0,0,0,0.3)"
     filter="url(#blur_shadow)"
     transform="translate(0 10)"
     id="path304" />
  <path
     d="M924 355.412c0-9.782 0-18.35-.056-28.133-.049-8.241-.144-16.48-.368-24.716-.484-17.954-1.543-36.061-4.736-53.813-3.238-18.01-8.526-34.77-16.859-51.133a171.963 171.963 0 00-31.661-43.559 172.06 172.06 0 00-43.574-31.64c-16.381-8.335-33.159-13.621-51.188-16.858-17.755-3.188-35.867-4.245-53.82-4.73-8.243-.223-16.485-.317-24.73-.368-9.788-.06-19.576-.055-29.364-.055L553.997 100h-84.999l-111.637.407c-9.807 0-19.614-.005-29.421.055-8.262.051-16.52.145-24.778.368-17.995.485-36.148 1.543-53.945 4.735-18.053 3.236-34.857 8.52-51.259 16.849a172.405 172.405 0 00-43.667 31.644 171.994 171.994 0 00-31.718 43.551c-8.356 16.372-13.654 33.143-16.9 51.162-3.196 17.746-4.255 35.846-4.742 53.792-.222 8.237-.318 16.476-.368 24.716-.06 9.784-.563 21.937-.563 31.72v195.999l.508 112.429c0 9.796-.004 19.592.055 29.388.05 8.252.146 16.502.369 24.751.486 17.976 1.547 36.109 4.746 53.886 3.245 18.032 8.542 34.818 16.891 51.201a172.24 172.24 0 0031.722 43.619 172.444 172.444 0 0043.659 31.684c16.412 8.346 33.224 13.639 51.288 16.88 17.789 3.193 35.936 4.252 53.924 4.737 8.258.223 16.517.318 24.779.368 9.807.059 19.613.059 29.42.059h310.283c9.788 0 19.576 0 29.364-.059 8.245-.05 16.487-.145 24.73-.368 17.96-.486 36.078-1.546 53.841-4.741 18.018-3.241 34.788-8.532 51.159-16.873a172.004 172.004 0 0043.582-31.687 172.23 172.23 0 0031.659-43.612c8.337-16.391 13.625-33.184 16.865-51.229 3.19-17.77 4.248-35.896 4.733-53.865.223-8.25.318-16.5.367-24.751.056-9.796.056-19.592.056-29.388V355.412z"
     fill="#fff"
     id="path306"
     style="fill:url(#linearGradient23031);fill-opacity:1" />
  <g
     id="g56254"
     style="display:inline"
     transform="matrix(1.265892,0,0,1.265892,47.497792,51.053496)">
    <g
       id="g56250"
       style="display:inline">
      <path
         id="path20644-5-0-1-5"
         style="display:inline;mix-blend-mode:normal;fill:#000000;fill-opacity:0.493562;fill-rule:evenodd;stroke:#ffffff;stroke-width:0.149253;stroke-linecap:round;stroke-opacity:1;filter:url(#filter45561)"
         d="m 134.09714,129.71118 c -8.19929,-0.0599 -12.03254,9.71802 -13.67927,15.81144 -2.40691,7.19687 -3.6648,13.99407 -5.18469,21.19095 -2.9805,12.02096 -0.23147,18.57723 5.38468,21.15013 2.80808,1.28646 6.2109,1.56224 9.97252,1.02681 1.88081,-0.26772 4.74609,-1.00147 6.77685,-1.64951 3.5892,-1.25436 1.78897,-0.58254 3.58893,-1.25419 3.28807,-1.22692 2.78356,-1.05224 4.39663,-1.62212 0,0 0.95383,-0.34295 1.44384,-0.51935 0.49002,-0.17639 1.87328,-0.85058 5.29115,-0.96376 0.85427,-0.0283 1.67279,-0.0639 2.34197,-0.0274 0.66919,-0.0366 1.48874,-0.001 2.34301,0.0274 3.41788,0.11318 4.80062,0.78737 5.29063,0.96376 0.49002,0.1764 1.44384,0.51935 1.44384,0.51935 1.61308,0.56988 1.10857,0.3952 4.39664,1.62212 1.79995,0.67165 2.2e-4,-1.7e-4 3.58944,1.25419 2.03075,0.64804 4.89552,1.38179 6.77633,1.64951 3.76162,0.53543 7.16496,0.25965 9.97304,-1.02681 5.61615,-2.5729 8.36519,-9.12917 5.38468,-21.15013 -1.5199,-7.19688 -2.77778,-13.99408 -5.1847,-21.19095 -1.84895,-6.84173 -6.45472,-18.3287 -16.90181,-15.31948 l -4.36769,1.15342 c -4.04966,1.22727 -8.41213,2.53266 -12.74289,2.53266 -4.33075,-1e-5 -8.69324,-1.30539 -12.74289,-2.53266 l -4.36769,-1.15342 c -1.14265,-0.32914 -2.21562,-0.48461 -3.22255,-0.49196 z m 13.82293,15.96337 a 4.1244459,4.1244459 0 0 1 2.06241,0.55242 l 15.05128,8.68991 a 4.1244459,4.1244459 0 0 1 0,7.14375 l -15.05128,8.68939 a 4.1244459,4.1244459 0 0 1 -6.1867,-3.57188 v -17.3793 a 4.1244459,4.1244459 0 0 1 4.12429,-4.12429 z"
         transform="matrix(6.8142574,0,0,6.9777292,-685.39093,-729.37176)" />
      <path
         id="path20644-5-0-1"
         style="display:inline;fill:#ffffff;fill-opacity:1;fill-rule:evenodd;stroke:#ffffff;stroke-width:1.03334;stroke-linecap:round;stroke-opacity:1"
         d="m 226.16205,158.37308 c -56.76706,-0.41471 -83.30622,67.28185 -94.70721,109.4691 -16.66403,49.82689 -25.37292,96.8867 -35.895743,146.71366 -20.635227,83.22605 -1.602562,128.6178 37.280353,146.43104 19.44149,8.90669 43.00061,10.81603 69.04386,7.10903 13.02162,-1.85354 32.85913,-6.93359 46.91891,-11.42024 24.84951,-8.68445 12.38578,-4.03316 24.84764,-8.68327 22.76466,-8.49447 19.27173,-7.28509 30.43968,-11.2306 0,0 6.60376,-2.37439 9.9963,-3.59568 3.39261,-1.22122 12.96949,-5.88891 36.6328,-6.6725 5.91447,-0.19593 11.58142,-0.44241 16.21443,-0.1897 4.63307,-0.2534 10.30715,-0.007 16.22162,0.1897 23.66339,0.78359 33.23666,5.45128 36.6292,6.6725 3.39261,1.22129 9.9963,3.59568 9.9963,3.59568 11.16802,3.94551 7.67509,2.73613 30.43975,11.2306 12.46179,4.65011 0.002,-10e-4 24.85117,8.68327 14.05971,4.48665 33.89369,9.5667 46.91531,11.42024 26.04325,3.707 49.60597,1.79766 69.04746,-7.10903 38.88292,-17.81324 57.91565,-63.20499 37.28035,-146.43104 C 627.79134,364.72888 619.08252,317.66907 602.41842,267.84218 589.61738,220.47407 557.72974,140.94505 485.40024,161.77912 l -30.23931,7.9856 c -28.03746,8.4969 -58.24063,17.53465 -88.22426,17.53465 -29.98357,-7e-5 -60.18688,-9.03775 -88.22427,-17.53465 l -30.23931,-7.9856 c -7.91104,-2.27877 -15.33965,-3.35515 -22.31104,-3.40604 z m 95.70182,110.52097 a 28.555235,28.555235 0 0 1 14.27892,3.82463 l 104.2062,60.16382 a 28.555235,28.555235 0 0 1 0,49.45912 l -104.2062,60.16022 A 28.555235,28.555235 0 0 1 293.30972,417.77225 V 297.44821 a 28.555235,28.555235 0 0 1 28.55415,-28.55416 z" />
    </g>
  </g>
</svg>
